<svg width="51" height="60" viewBox="0 0 51 60" fill="none" xmlns="http://www.w3.org/2000/svg">
<path d="M15.4563 0H20.4366C40.3578 20.8791 33.845 41.7583 30.5887 47.3133C35.7606 28.7328 29.0563 14.1748 15.4563 0Z" fill="#00935E"/>
<path d="M47.6379 0H42.6575C20.4376 18.1974 20.246 41.9498 23.5024 47.5048C21.2038 28.7328 37.4856 8.23672 47.6379 0Z" fill="#ACA0A2"/>
<path d="M43.2326 8.04492L34.4212 18.1972C37.8692 26.817 37.4861 38.6932 32.6973 49.2285C58.3652 40.2256 51.8524 15.8985 43.2326 8.04492Z" fill="#004693"/>
<path d="M7.76739 8.04492L16.5788 18.1972C13.1308 26.817 13.5139 38.6932 18.3027 49.2285C-7.36519 40.2256 -0.852434 15.8985 7.76739 8.04492Z" fill="#004693"/>
<path d="M3.19806 0H8.1784C30.3984 18.1974 30.5899 41.9498 27.3336 47.5048C29.6322 28.7328 13.3503 8.23672 3.19806 0Z" fill="#00935E"/>
<path d="M35.409 0H30.4286C10.5074 20.8791 17.0202 41.7583 20.2765 47.3133C15.1047 28.7328 21.809 14.1748 35.409 0Z" fill="#ACA0A2"/>
<path d="M28.223 10.2117L25.3133 5.81006L23.1458 9.06647L25.5989 12.7722L28.223 10.2117Z" fill="#00935E"/>
<path d="M40.2123 54.53V59.286H42.2458L42.5315 57.8323H43.2457V59.9162H38.3301V59.4288L39.1199 59.2524V54.53L38.3301 54.3536V53.8662H41.0862V54.3536L40.2123 54.53Z" fill="black"/>
<path d="M35.3278 54.362C35.1149 54.362 34.9104 54.4068 34.7144 54.4965C34.5239 54.5861 34.3698 54.7149 34.2522 54.883C34.101 55.1015 33.9721 55.3759 33.8657 55.7065C33.7648 56.0314 33.7144 56.3927 33.7144 56.7904C33.7144 57.1881 33.7564 57.5607 33.8405 57.908C33.9245 58.2553 34.0421 58.5466 34.1934 58.7819C34.3166 58.9723 34.4819 59.1124 34.6892 59.202C34.902 59.2916 35.1401 59.3364 35.4034 59.3364C36.3445 59.3364 36.8963 58.8631 37.0587 57.9164H37.773C37.4985 59.3056 36.647 60.0003 35.2185 60.0003C34.4455 60.0003 33.8293 59.7762 33.3699 59.328C33.0954 59.0592 32.8854 58.7202 32.7397 58.3113C32.5941 57.9024 32.5212 57.4486 32.5212 56.9501C32.5212 56.3843 32.6137 55.8717 32.7985 55.4124C32.9834 54.953 33.2439 54.5861 33.58 54.3116C34.0057 53.9587 34.5687 53.7822 35.2689 53.7822C35.6163 53.7822 35.8991 53.827 36.1176 53.9167C36.3361 54.0063 36.5518 54.166 36.7646 54.3956L36.9327 53.8663H37.6469V55.8493H36.8823C36.8038 55.3563 36.6274 54.9866 36.3529 54.7401C36.084 54.4881 35.7423 54.362 35.3278 54.362Z" fill="black"/>
<path d="M27.7552 59.286H28.8056C29.1081 59.286 29.3657 59.2412 29.5786 59.1515C29.7915 59.0563 29.9707 58.9163 30.1164 58.7314C30.2676 58.5409 30.3825 58.2973 30.4609 58.0004C30.5393 57.7035 30.5785 57.3506 30.5785 56.9416C30.5785 56.1462 30.4245 55.5384 30.1164 55.1182C29.9651 54.911 29.7747 54.7569 29.545 54.6561C29.3209 54.5496 29.0464 54.4964 28.7215 54.4964H27.7552V59.286ZM25.957 53.8662H29.0324C29.8671 53.8662 30.5169 54.1015 30.9819 54.572C31.2452 54.8409 31.4468 55.1714 31.5869 55.5636C31.7269 55.9557 31.7969 56.3758 31.7969 56.824C31.7969 57.2945 31.7213 57.7371 31.5701 58.1516C31.4244 58.5605 31.22 58.9051 30.9567 59.1852C30.4917 59.6725 29.8251 59.9162 28.9568 59.9162H25.957V59.4288L26.6629 59.2524V54.53L25.957 54.3536V53.8662Z" fill="black"/>
<path d="M23.8253 59.2524L23.3968 57.95H21.3465L20.9096 59.2524L21.607 59.4289V59.9162H19.3887V59.4289L20.0777 59.2524L22.0439 53.7822H23.0775L25.0269 59.2524L25.6991 59.4289V59.9162H23.1363V59.4289L23.8253 59.2524ZM22.3801 54.8914L21.5566 57.3366H23.1951L22.4137 54.8914H22.3801Z" fill="black"/>
<path d="M14.4805 53.8662H19.7406V55.7568H19.2028L18.9339 54.4964H17.6567V59.2272L18.5474 59.4288V59.9162H15.6737V59.4288L16.5644 59.2272V54.4964H15.2787L15.0182 55.7568H14.4805V53.8662Z" fill="black"/>
<path d="M8.46169 59.2524V54.53L7.75586 54.3536V53.8662H9.6969L12.5034 58.3029V54.53L11.7976 54.3536V53.8662H14.0075V54.3536L13.3017 54.53V59.9162H12.369L9.25995 55.093V59.2524L9.96578 59.4288V59.9162H7.75586V59.4288L8.46169 59.2524Z" fill="black"/>
</svg>
